<svg width="148" height="97" viewBox="0 0 148 97" fill="none" xmlns="http://www.w3.org/2000/svg">
<rect width="5.03992" height="16.2257" rx="1" transform="matrix(0.018782 0.999794 -0.999848 0.0190118 17.0413 88.207)" fill="#4E878C"/>
<path d="M29.511 23.8424C26.383 28.9408 20.5283 30.5958 16.5673 28.1965C12.6064 25.7972 11.4047 19.8679 14.5326 14.7695C17.6606 9.67111 23.5153 8.01612 27.4763 10.4154C31.4372 12.8147 32.6389 18.7441 29.511 23.8424Z" fill="#343434" stroke="black" stroke-width="3"/>
<path d="M90.907 11.7145C94.7534 17.2163 93.8297 23.9781 89.506 26.9626C85.1823 29.947 78.4827 28.4472 74.6363 22.9454C70.7899 17.4436 71.7137 10.6818 76.0374 7.69735C80.3611 4.71288 87.0606 6.21267 90.907 11.7145Z" fill="#343434" stroke="black" stroke-width="3"/>
<path d="M53.0055 74.687C62.9313 74.687 72.0322 72.3774 78.6764 67.325C85.3598 62.2428 89.4537 54.4618 89.4537 43.7836C89.4537 22.5053 73.1907 5.15234 53.0055 5.15234C32.8203 5.15234 16.5574 22.5053 16.5574 43.7836C16.5574 54.4618 20.6512 62.2428 27.3346 67.325C33.9789 72.3774 43.0798 74.687 53.0055 74.687Z" fill="#EFEFEF" stroke="black" stroke-width="2"/>
<path d="M45.5231 54.824C38.9131 59.8974 28.8147 58.9473 25.0326 54.0822C21.2505 49.217 25.217 42.2791 31.827 37.2057C38.4369 32.1323 46.8614 31.9635 50.6435 36.8287C54.4256 41.6939 52.1331 49.7506 45.5231 54.824Z" fill="#3E3E3E"/>
<path d="M64.5293 55.7625C57.2559 51.6828 54.2119 42.0682 57.2532 36.7147C60.2946 31.3612 68.2696 32.296 75.5431 36.3757C82.8166 40.4554 86.2474 48.1026 83.206 53.4561C80.1647 58.8096 71.8028 59.8422 64.5293 55.7625Z" fill="#3E3E3E"/>
<ellipse cx="46.4108" cy="44.6882" rx="2.63664" ry="2.61988" fill="#EFEFEF"/>
<ellipse cx="46.4108" cy="44.6882" rx="2.63664" ry="2.61988" fill="#EFEFEF"/>
<ellipse cx="61.9377" cy="44.3971" rx="2.34368" ry="2.32878" fill="#EFEFEF"/>
<path d="M54.2904 55.6029C54.6051 55.627 54.9212 55.6263 55.2357 55.6008L59.7435 55.2344H61.5497C62.993 55.2344 64.163 56.4044 64.163 57.8477V57.8477C64.163 59.0486 63.3445 60.095 62.1789 60.3841L56.2204 61.8623C55.2717 62.0977 54.2798 62.0977 53.331 61.8623L47.3725 60.3841C46.2069 60.095 45.3884 59.0486 45.3884 57.8477V57.8477C45.3884 56.4044 46.5585 55.2344 48.0018 55.2344H49.4899L54.2904 55.6029Z" fill="#282424"/>
<rect width="4.30338" height="29.2765" rx="1" transform="matrix(1.00058 0.0219644 -0.0278392 0.998765 58.9312 64.127)" fill="#4E878C"/>
<rect width="23.8266" height="4.40283" rx="1" transform="matrix(1.00061 -0.0147888 0.00955608 0.999208 49.0708 62.2832)" fill="#4E878C"/>
<rect width="4.35701" height="29.7581" rx="1" transform="matrix(0.999691 -0.0248634 0.0251824 0.999683 0 63.4658)" fill="#4E878C"/>
<rect width="4.68862" height="17.9883" rx="1" transform="matrix(0.0265187 0.999648 -0.999657 0.0261829 17.9822 62.999)" fill="#4E878C"/>
<path d="M15.0299 75.5359C15.5635 75.5227 16.013 75.9304 16.0423 76.4634C16.0943 77.4094 16.1521 78.833 16.0868 79.6404C15.9987 80.7305 5.35871 80.2361 2.14135 80.0616C1.62341 80.0335 1.22016 79.6115 1.20711 79.093L1.15145 76.881C1.13756 76.3289 1.57388 75.8702 2.12599 75.8565L15.0299 75.5359Z" fill="#4E878C"/>
<path d="M32.267 73.0875C32.5182 72.605 32.3382 72.0048 31.8383 71.7876C30.376 71.1522 28.7932 70.8498 27.202 70.9071C25.2854 70.976 23.4259 71.5643 21.8148 72.6113C20.2036 73.6584 18.8991 75.1264 18.0353 76.8643C17.1716 78.6022 16.7798 80.5472 16.9004 82.4993C17.0209 84.4514 17.6494 86.3399 18.7212 87.9707C19.793 89.6015 21.2694 90.9155 22.9984 91.7777C24.7275 92.6398 26.6468 93.0189 28.5588 92.8759C30.1437 92.7574 31.6761 92.2838 33.0486 91.4936C33.5215 91.2213 33.6294 90.6024 33.3207 90.1514L31.7831 87.9044C31.4674 87.4431 30.8376 87.3375 30.3343 87.5788C29.66 87.9021 28.9298 88.0981 28.179 88.1543C27.0897 88.2357 25.9963 88.0198 25.0112 87.5286C24.0262 87.0374 23.1851 86.2888 22.5745 85.3597C21.9638 84.4307 21.6058 83.3547 21.5371 82.2426C21.4684 81.1305 21.6916 80.0224 22.1837 79.0323C22.6758 78.0422 23.419 77.2059 24.3369 76.6094C25.2548 76.0129 26.3141 75.6777 27.406 75.6384C28.1585 75.6114 28.9077 75.7255 29.617 75.9721C30.1465 76.1561 30.7616 75.9782 31.02 75.4819L32.267 73.0875Z" fill="#4E878C"/>
<path d="M50.3688 82.0899C50.3688 87.8775 46.434 92.5694 41.5801 92.5694C36.7261 92.5694 32.7913 87.8775 32.7913 82.0899C32.7913 76.3022 36.7261 71.6104 41.5801 71.6104C46.434 71.6104 50.3688 76.3022 50.3688 82.0899ZM36.1249 82.0899C36.1249 86.1725 38.1561 88.332 41.5801 88.332C45.004 88.332 46.429 86.7257 46.429 82.6431C46.429 78.5605 45.004 75.7565 41.5801 75.7565C38.1561 75.7565 36.1249 78.0072 36.1249 82.0899Z" fill="#4E878C"/>
<path d="M67.3752 70.3228C67.4295 69.2593 68.3076 68.4248 69.3726 68.4248H69.6217C70.7263 68.4248 71.6217 69.3202 71.6217 70.4248V91.1644C71.6217 92.269 70.7263 93.1645 69.6217 93.1645H68.3137C67.1691 93.1645 66.2579 92.2056 66.3163 91.0625L67.3752 70.3228Z" fill="#4E878C"/>
<path d="M68.1748 68.4775C75.3107 67.3918 83.4838 69.0372 83.4939 70.586C83.504 72.1347 81.8645 75.2739 81.8645 75.2739C77.034 71.9945 74.2776 71.4029 69.3164 72.5611L68.1748 68.4775Z" fill="#4E878C"/>
<path d="M76.5996 71.9208L82.4585 74.1332C79.9122 79.1049 77.2175 81.5921 71.0425 82.5842L68.4563 79.2553C73.7371 77.8772 78.6189 76.0132 76.5996 71.9208Z" fill="#4E878C"/>
<path d="M70.5842 82.1467C70.5842 80.4903 72.7115 79.7975 73.7009 81.1317L74.2152 81.8252L81.2463 90.3379C81.5412 90.695 81.7188 91.1557 81.5377 91.5807C81.2779 92.1904 80.6084 93.0065 78.8835 93.1642C76.3704 93.394 71.7419 84.78 70.7673 82.9086C70.6437 82.6712 70.5842 82.4138 70.5842 82.1467V82.1467Z" fill="#4E878C"/>
<path d="M97.4306 85.3587C97.8228 85.5609 98.0413 85.9962 97.9376 86.4236C97.6185 87.7373 97.1024 88.9155 96.4181 89.8857C95.6103 91.031 94.5913 91.8533 93.446 92.2843C92.3007 92.7154 91.062 92.7427 89.8328 92.364C88.6036 91.9853 87.4194 91.2115 86.3786 90.1069C85.3378 89.0024 84.4703 87.5989 83.8483 86.013C83.2263 84.4272 82.8677 82.7048 82.8023 80.9888C82.7369 79.2729 82.9666 77.6129 83.4723 76.1469C83.8709 74.9912 84.4319 73.9823 85.1241 73.1702C85.4409 72.7986 85.9937 72.7798 86.381 73.0803L87.1032 73.6404C87.592 74.0195 87.7183 74.8282 87.5118 75.409C87.1262 76.4932 86.761 78.055 86.5654 78.6223C86.2807 79.4478 86.1513 80.3824 86.1882 81.3485C86.225 82.3147 86.4269 83.2845 86.7771 84.1774C87.1273 85.0703 87.6157 85.8605 88.2017 86.4824C88.7877 87.1043 89.4545 87.54 90.1466 87.7532C90.8387 87.9664 91.5361 87.951 92.181 87.7084C92.8259 87.4657 93.3995 87.0027 93.8544 86.3578C94.0786 86.0399 94.2707 85.6824 94.4276 85.2932C94.6781 84.6718 95.3994 84.3115 95.9971 84.6197L97.4306 85.3587Z" fill="#4E878C"/>
<path d="M91.1888 70.3116C95.4301 70.1742 99.4104 69.9026 99.109 76.9372C98.8075 83.9719 95.9112 83.9231 91.6699 84.0605C87.4285 84.1979 83.8825 81.2316 83.7497 77.4349C83.6168 73.6383 86.9474 70.4491 91.1888 70.3116ZM91.5207 80.209C93.76 80.1365 95.5541 79.0592 95.4839 77.0547C95.4138 75.0502 93.5416 73.484 91.3023 73.5566C89.063 73.6292 88.3261 75.6176 88.3963 77.6221C88.4664 79.6267 89.2814 80.2816 91.5207 80.209Z" fill="#4E878C"/>
<path d="M102.118 73.072C101.905 72.5864 102.109 72.0192 102.583 71.7817L104.257 70.9445C104.742 70.7015 105.336 70.8904 105.59 71.3703C108.547 76.9438 110.697 81.6096 114.821 89.5552C115.078 90.0509 114.88 90.6606 114.379 90.9084L112.598 91.7904C112.129 92.0227 111.557 91.8536 111.29 91.4027C107.434 84.879 105.374 80.4744 102.118 73.072Z" fill="#4E878C"/>
<path d="M101.492 72.5234C101.492 71.4189 102.39 70.5234 103.494 70.5234V70.5234C104.646 70.5234 105.562 71.4947 105.496 72.6445C105.132 78.9759 104.997 83.3104 105.457 89.9162C105.537 91.0707 104.629 92.0611 103.471 92.0611V92.0611C102.378 92.0611 101.492 91.1749 101.492 90.0817V72.5234Z" fill="#4E878C"/>
<path d="M111.163 72.5858C111.128 71.4519 112.034 70.5068 113.169 70.5068H113.426C114.531 70.5068 115.426 71.4023 115.426 72.5068V90.0447C115.426 91.1493 114.531 92.0447 113.426 92.0447H113.13C112.01 92.0447 111.109 91.1235 111.132 90.0039C111.265 83.6119 111.374 79.3194 111.163 72.5858Z" fill="#4E878C"/>
<rect x="118.159" y="70.8125" width="3.9917" height="21.319" rx="1.99585" fill="#4E878C"/>
<path d="M121.026 91.9791C122.344 92.2804 123.709 92.1363 125.006 91.5592C126.302 90.982 127.491 89.9889 128.471 88.6647C129.452 87.3404 130.194 85.7244 130.635 83.9544C131.077 82.1845 131.203 80.3132 131.005 78.5003C130.806 76.6875 130.289 74.9868 129.496 73.5436C128.703 72.1004 127.658 70.9574 126.452 70.2123C125.245 69.4672 123.911 69.142 122.565 69.2645C121.219 69.387 119.9 69.9536 118.721 70.9159L120.625 75.5327C121.247 75.0251 121.942 74.7263 122.653 74.6616C123.363 74.597 124.066 74.7685 124.702 75.1615C125.339 75.5546 125.89 76.1574 126.308 76.9187C126.726 77.6799 126.999 78.5769 127.104 79.5331C127.209 80.4893 127.142 81.4763 126.909 82.4099C126.677 83.3435 126.285 84.1959 125.768 84.8943C125.251 85.5928 124.624 86.1166 123.94 86.421C123.256 86.7255 122.536 86.8015 121.841 86.6426L121.026 91.9791Z" fill="#4E878C"/>
<path d="M142.107 83.5171C141.59 82.4559 141.874 81.0002 137.477 82.2558C137.011 82.3889 136.516 82.4299 136.04 82.3361C134.954 82.1224 134.062 81.8435 133.218 80.9997C132.193 79.9749 131.51 78.6612 131.261 77.2377C131.012 75.8143 131.21 74.3505 131.827 73.0459C132.445 71.7413 133.452 70.6595 134.712 69.948C135.971 69.2365 137.422 68.93 138.866 69.0703C140.309 69.2106 141.676 69.7909 142.778 70.7319C143.441 71.2972 143.989 71.9762 144.399 72.7317C144.853 73.5672 144.281 74.5177 143.359 74.7508V74.7508C142.438 74.9839 141.521 74.3788 140.886 73.6705C140.779 73.5514 140.664 73.4391 140.542 73.3344C139.978 72.8534 139.28 72.5569 138.542 72.4852C137.804 72.4135 137.062 72.5701 136.419 72.9337C135.775 73.2974 135.26 73.8503 134.944 74.5171C134.629 75.1839 134.528 75.9321 134.655 76.6596C134.782 77.3871 135.131 78.0586 135.655 78.5823C136.179 79.1061 138.399 78.6295 139.129 78.7592V78.7592C139.742 78.868 139.97 79.7256 140.276 80.2672L142.107 83.5171Z" fill="#4E878C"/>
<path d="M136.562 78.9942C137.903 78.4505 139.382 78.3325 140.796 78.6569C142.21 78.9813 143.49 79.7321 144.463 80.8067C145.435 81.8813 146.052 83.2273 146.229 84.6614C146.406 86.0955 146.135 87.5483 145.453 88.8205C144.77 90.0928 143.71 91.1231 142.416 91.771C141.122 92.4189 139.658 92.6527 138.223 92.4408C136.788 92.2288 135.452 91.5809 134.398 90.586C133.833 90.0533 133.364 89.435 133.005 88.7581C132.488 87.7815 133.21 86.7058 134.294 86.4884L134.8 86.3867C135.73 86.2002 136.617 86.8736 137.307 87.5251V87.5251C137.728 87.9216 138.26 88.1796 138.832 88.2641C139.404 88.3485 139.987 88.2556 140.503 87.9974C141.018 87.7392 141.441 87.3282 141.713 86.8213C141.984 86.3143 142.093 85.7356 142.022 85.1641C141.951 84.5926 141.706 84.0564 141.318 83.6282C140.931 83.2 136.656 82.4146 136.093 82.2853C135.53 82.156 134.157 79.9141 133.622 80.1307L136.562 78.9942Z" fill="#4E878C"/>
<path d="M147.904 65.6046C147.964 66.225 146.179 67.216 145.131 67.7568C144.083 68.2976 142.738 69.194 141.196 69.3384C139.654 69.4828 138.04 68.8635 136.907 68.527C135.774 68.1904 135.104 67.6528 135.044 67.0324L140.859 66.4878L147.904 65.6046Z" fill="#3D7264"/>
<path d="M135.029 66.8566C134.97 66.2361 135.525 65.5837 136.573 65.0427C137.621 64.5018 139.037 63.6831 140.58 63.5387C142.122 63.3942 143.664 63.9357 144.797 64.2724C145.93 64.609 147.848 64.9949 147.908 65.6155L140.845 66.3119L135.029 66.8566Z" fill="#3D7264"/>
<path d="M145.01 58.8018C145.473 59.5219 143.914 61.8434 142.973 63.1564C142.032 64.4694 140.952 66.4011 139.159 67.5378C137.366 68.6744 135.006 68.9228 133.411 69.2173C131.815 69.5118 130.659 69.2726 130.197 68.5524L136.958 64.2667L145.01 58.8018Z" fill="#4E878C"/>
<path d="M130.062 68.3423C129.599 67.6221 129.868 66.48 130.809 65.1669C131.75 63.8539 132.966 61.9727 134.759 60.836C136.553 59.6993 138.776 59.4002 140.372 59.1057C141.967 58.8112 144.552 58.088 145.015 58.8082L136.824 64.0563L130.062 68.3423Z" fill="#4E878C"/>
</svg>
