<svg width="44" height="37" viewBox="0 0 44 37" fill="none" xmlns="http://www.w3.org/2000/svg">
<path d="M38.8084 5.32558H7.33333L11.5174 23.8354C11.9296 25.6588 13.5496 26.9535 15.419 26.9535H35.2144C37.0307 26.9535 38.619 25.7297 39.0822 23.9735L42.6761 10.3456C43.3451 7.80876 41.4319 5.32558 38.8084 5.32558Z" fill="white"/>
<path d="M7.33333 5.32558H38.8084C41.4319 5.32558 43.3451 7.80876 42.6761 10.3456L39.0822 23.9735C38.619 25.7297 37.0307 26.9535 35.2144 26.9535H15.419C13.5496 26.9535 11.9296 25.6588 11.5174 23.8354L7.33333 5.32558ZM7.33333 5.32558L6.93402 3.91236C6.44723 2.18955 4.87498 1 3.08473 1H0" stroke="white" stroke-width="2"/>
<path d="M37.8878 31.3403C38.4401 31.3409 38.8883 30.8936 38.8889 30.3414C38.8895 29.7891 38.4423 29.3409 37.89 29.3403L37.8878 31.3403ZM13.7438 31.3137L37.8878 31.3403L37.89 29.3403L13.746 29.3137L13.7438 31.3137ZM11.7033 24.0056C8.29858 26.0727 9.76073 31.3094 13.7438 31.3137L13.746 29.3137C11.7847 29.3116 11.0647 26.733 12.7412 25.7151L11.7033 24.0056Z" fill="white"/>
<path d="M16.111 33.6516C16.111 34.9745 15.0742 36.0004 13.8518 36.0004C12.6294 36.0004 11.5925 34.9745 11.5925 33.6516C11.5925 32.3286 12.6294 31.3027 13.8518 31.3027C15.0742 31.3027 16.111 32.3286 16.111 33.6516Z" stroke="white" stroke-width="2"/>
<path d="M38.111 33.6516C38.111 34.9745 37.0742 36.0004 35.8518 36.0004C34.6294 36.0004 33.5925 34.9745 33.5925 33.6516C33.5925 32.3286 34.6294 31.3027 35.8518 31.3027C37.0742 31.3027 38.111 32.3286 38.111 33.6516Z" stroke="white" stroke-width="2"/>
<rect x="8.14819" y="9.37207" width="34.2222" height="1.67442" fill="white"/>
<rect width="21.7662" height="1.62973" transform="matrix(-0.045635 0.998958 -0.998839 -0.0481722 36.3477 5.2373)" fill="white"/>
<rect x="29.3333" y="6.02344" width="21.7674" height="1.62963" transform="rotate(90 29.3333 6.02344)" fill="white"/>
<rect x="22.8147" y="6.02344" width="21.7674" height="1.62963" transform="rotate(90 22.8147 6.02344)" fill="white"/>
<rect width="21.767" height="1.62967" transform="matrix(0.0276547 0.999618 -0.999574 0.0291945 15.9949 6.00391)" fill="white"/>
<rect x="9.77783" y="14.3955" width="30.963" height="1.67442" fill="white"/>
<rect width="28.9038" height="1.67442" transform="matrix(1 -0.000464141 0.000439643 1 10.5923 19.4258)" fill="white"/>
</svg>
