<svg width="44" height="36" viewBox="0 0 44 36" fill="none" xmlns="http://www.w3.org/2000/svg">
<path d="M38.7704 5.20543H7.33333L11.5028 23.1384C11.9241 24.9502 13.5387 26.2326 15.3989 26.2326H35.2368C37.0426 26.2326 38.6245 25.0226 39.0973 23.2797L42.6309 10.2526C43.3208 7.70929 41.4056 5.20543 38.7704 5.20543Z" fill="#4E878C"/>
<path d="M7.33333 5.20543H38.7704C41.4056 5.20543 43.3208 7.70929 42.6309 10.2526L39.0973 23.2797C38.6245 25.0226 37.0426 26.2326 35.2368 26.2326H15.3989C13.5387 26.2326 11.9241 24.9502 11.5028 23.1384L7.33333 5.20543ZM7.33333 5.20543L6.94919 3.88367C6.45265 2.17517 4.88732 1 3.10812 1H0" stroke="#4E878C" stroke-width="2"/>
<path d="M37.8878 30.525C38.4401 30.5256 38.8883 30.0783 38.8889 29.526C38.8895 28.9737 38.4423 28.5256 37.89 28.525L37.8878 30.525ZM13.6662 30.4991L37.8878 30.525L37.89 28.525L13.6683 28.4991L13.6662 30.4991ZM11.7139 23.3361C8.34179 25.3266 9.75042 30.4949 13.6662 30.4991L13.6683 28.4991C11.7874 28.4971 11.1108 26.0145 12.7306 25.0584L11.7139 23.3361Z" fill="#4E878C"/>
<path d="M16.111 32.7441C16.111 33.9889 15.1005 34.9999 13.8518 34.9999C12.603 34.9999 11.5925 33.9889 11.5925 32.7441C11.5925 31.4992 12.603 30.4883 13.8518 30.4883C15.1005 30.4883 16.111 31.4992 16.111 32.7441Z" stroke="#4E878C" stroke-width="2"/>
<path d="M38.111 32.7441C38.111 33.9889 37.1005 34.9999 35.8518 34.9999C34.603 34.9999 33.5925 33.9889 33.5925 32.7441C33.5925 31.4992 34.603 30.4883 35.8518 30.4883C37.1005 30.4883 38.111 31.4992 38.111 32.7441Z" stroke="#4E878C" stroke-width="2"/>
<rect x="8.14819" y="9.13965" width="34.2222" height="1.62791" fill="#4E878C"/>
<rect width="21.1628" height="1.62963" transform="matrix(-0.046936 0.998898 -0.998903 -0.046837 36.3477 5.12012)" fill="#4E878C"/>
<rect x="29.3333" y="5.88379" width="21.1628" height="1.62963" transform="rotate(90 29.3333 5.88379)" fill="#4E878C"/>
<rect x="22.8147" y="5.88379" width="21.1628" height="1.62963" transform="rotate(90 22.8147 5.88379)" fill="#4E878C"/>
<rect width="21.1628" height="1.62963" transform="matrix(0.0284442 0.999595 -0.999597 0.0283842 15.9949 5.86426)" fill="#4E878C"/>
<rect x="9.77783" y="14.0234" width="30.963" height="1.62791" fill="#4E878C"/>
<rect x="10.5923" y="18.9141" width="28.9038" height="1.62791" transform="rotate(-0.0258546 10.5923 18.9141)" fill="#4E878C"/>
</svg>
